<svg id="Capa_1" enable-background="new 0 0 511.74 511.74" height="512" viewBox="0 0 511.74 511.74" width="512" xmlns="http://www.w3.org/2000/svg"><g><path d="m316.856 459.321c-4.143 0-7.5 3.357-7.5 7.5v2.107c0 15.335-12.477 27.812-27.812 27.812h-116.042c-15.335 0-27.812-12.477-27.812-27.812v-115.521c0-4.143-3.357-7.5-7.5-7.5s-7.5 3.357-7.5 7.5v115.521c0 23.606 19.205 42.812 42.812 42.812h116.043c23.606 0 42.812-19.205 42.812-42.812v-2.107c-.001-4.142-3.358-7.5-7.501-7.5z"/><path d="m430.993 270.411h-41.861c-1.989 0-3.896.79-5.303 2.196l-15.989 15.988c-3.405 3.406-7.935 5.282-12.752 5.282h-30.731v-8.975c0-14.661-4.478-29.187-12.654-41.334 1.702.132 3.417.221 5.153.221 4.143 0 7.5-3.357 7.5-7.5s-3.357-7.5-7.5-7.5c-28.09 0-50.942-22.853-50.942-50.942v-19.07c0-2.819-1.581-5.4-4.093-6.682l-37.211-18.973c-2.79-1.422-6.166-.963-8.474 1.151l-16.126 14.771c-2.757 2.525-6.462 3.722-10.178 3.278-3.712-.442-7.038-2.476-9.124-5.578-3.492-5.191-2.743-12.099 1.779-16.424l23.572-22.536c5.069-4.847 11.725-7.516 18.738-7.516h58.303c6.896 0 13.514 2.924 18.158 8.021l39.333 43.178c1.421 1.56 3.434 2.449 5.544 2.449h84.857c4.143 0 7.5-3.357 7.5-7.5s-3.357-7.5-7.5-7.5h-81.544l-37.101-40.726c-7.479-8.211-18.14-12.92-29.246-12.92h-1.971v-11.624l46.011-14.548c4.603-1.455 8.131-5.098 9.439-9.745 1.308-4.646.197-9.596-2.971-13.237l-12.134-13.956c-12.246-14.083-29.972-22.16-48.634-22.16h-1.848c-4.143 0-7.5 3.357-7.5 7.5s3.357 7.5 7.5 7.5h1.848c14.318 0 27.92 6.197 37.315 17.002l11.412 13.125-50.199 15.872c-3.119.986-5.239 3.88-5.239 7.151v17.12h-41.332c-7.603 0-14.931 2.025-21.344 5.805l-22.86-43.909c-1.291-2.481-3.855-4.037-6.652-4.037h-42.924c-.799 0-1.449-.65-1.449-1.449v-25.23c0-.799.65-1.449 1.449-1.449h108.012c4.143 0 7.5-3.357 7.5-7.5s-3.357-7.5-7.5-7.5h-108.011c-4.658 0-8.861 1.955-11.857 5.077h-18.212c-10.747 0-19.491 8.743-19.491 19.49v9.129c0 10.747 8.744 19.491 19.491 19.491h18.335c.685.698 1.435 1.329 2.233 1.897v64.547l-1.334 5.351h-20.413c-14.625 0-26.523 11.898-26.523 26.523s11.898 26.523 26.523 26.523h37.442c-1.379 3.11-2.151 6.546-2.151 10.161 0 6.876 2.775 13.115 7.261 17.661-4.486 4.546-7.261 10.785-7.261 17.661s2.775 13.115 7.261 17.661c-4.486 4.546-7.261 10.785-7.261 17.661 0 8.737 4.479 16.445 11.258 20.958l-5.005 5.004c-9.553 9.554-15.917 22.174-17.92 35.535-.614 4.097 2.209 7.915 6.305 8.529.378.057.752.084 1.122.084 3.65 0 6.85-2.67 7.407-6.389 1.53-10.211 6.394-19.854 13.692-27.152l11.409-11.408h24.333c13.874 0 25.161-11.287 25.161-25.161 0-6.876-2.775-13.115-7.261-17.661 4.486-4.546 7.261-10.785 7.261-17.661s-2.775-13.115-7.261-17.661c1.072-1.087 2.048-2.269 2.91-3.535h47.167c6.151 15.333 17.886 27.846 32.693 34.979.001.002.002.004.004.006l9.141 12.122c7.66 10.157 11.879 22.758 11.879 35.479v149.955c0 4.143 3.357 7.5 7.5 7.5s7.5-3.357 7.5-7.5v-125.98h30.731c8.825 0 17.121-3.437 23.358-9.676l13.792-13.791h38.755c4.143 0 7.5-3.357 7.5-7.5s-3.357-7.499-7.5-7.499zm-239.368-169.576-19.503 18.646c-1.749 1.672-3.224 3.527-4.447 5.502h-8.19c4.216-7.182 6.469-15.383 6.469-23.915v-42.939h3.438zm-55.329 21.532c.147-.594.223-1.203.223-1.814v-62.424h14.436v42.938c0 8.532-3.293 16.583-9.272 22.669l-7.676 7.813zm-39.837-88.671v-9.129c0-2.476 2.015-4.49 4.491-4.49h13.619v18.11h-13.619c-2.476.001-4.491-2.014-4.491-4.491zm-8.212 117.81c0-6.354 5.169-11.523 11.523-11.523h16.75c-.69 4.875 1.613 9.612 6.004 12.07 1.867 1.045 3.888 1.555 5.887 1.555 3.109 0 6.166-1.235 8.5-3.61l9.838-10.015h16.787c.075 5.242 1.61 10.503 4.725 15.135 2.157 3.208 4.93 5.881 8.109 7.912h-76.599c-6.355-.001-11.524-5.17-11.524-11.524zm99.416 26.523c5.603 0 10.161 4.559 10.161 10.161s-4.559 10.161-10.161 10.161h-27.44c-5.603 0-10.161-4.559-10.161-10.161s4.559-10.161 10.161-10.161zm10.161 45.484c0 5.603-4.559 10.161-10.161 10.161h-27.44c-5.603 0-10.161-4.559-10.161-10.161s4.559-10.161 10.161-10.161h27.44c5.603 0 10.161 4.558 10.161 10.161zm-10.161 45.483h-27.44c-5.603 0-10.161-4.559-10.161-10.161s4.559-10.161 10.161-10.161h27.44c5.603 0 10.161 4.559 10.161 10.161s-4.558 10.161-10.161 10.161zm25.139-81.68c-.314-9.136-5.516-17.051-13.073-21.198 3.822-1.207 7.384-3.237 10.413-6.012l12.288-11.257 28.482 14.522v14.476c0 3.216.243 6.375.69 9.469z"/></g></svg>