<svg height="480pt" viewBox="0 -4 480 480" width="480pt" xmlns="http://www.w3.org/2000/svg"><path d="m312 39.679688h-32c-1.242188-.003907-2.464844.285156-3.574219.839843l-30.3125 15.160157h-94.113281c-.175781 0-.320312.085937-.496094.101562-.714844.042969-1.417968.183594-2.097656.417969-.269531.078125-.535156.171875-.796875.277343-.835937.375-1.597656.890626-2.257813 1.519532l-67.953124 67.945312c-1.503907 1.5-2.347657 3.539063-2.347657 5.664063s.84375 4.164062 2.347657 5.664062l22.640624 22.558594c3.125 3.113281 8.175782 3.113281 11.296876 0l31.664062-31.582031v119.433594h-8c-4.417969 0-8 3.578124-8 8v32c0 4.417968 3.582031 8 8 8h8v96c0 8.835937-7.164062 16-16 16h-120c-4.417969 0-8 3.578124-8 8v48c0 4.417968 3.582031 8 8 8h144c30.914062-.035157 55.964844-25.089844 56-56v-120h8c4.417969 0 8-3.582032 8-8v-32c0-4.421876-3.582031-8-8-8h-8v-96h38.113281l30.3125 15.199218c1.113281.539063 2.335938.8125 3.574219.800782h32c4.417969 0 8-3.582032 8-8v-112c0-4.421876-3.582031-8-8-8zm-72 96h-80v-64h80zm-133.289062 7.199218-11.3125-11.273437 48.601562-48.617188v22.65625zm85.289062 272.800782c-.027344 22.078124-17.917969 39.972656-40 40h-136v-32h112c17.671875 0 32-14.328126 32-32v-96h32zm16-136h-64v-16h64zm-16-32h-32v-96h32zm112-96h-22.113281l-25.886719-12.945313v-70.113281l25.886719-12.941406h22.113281zm0 0"/><path d="m368 95.679688h16v16h-16zm0 0"/><path d="m400 95.679688h16v16h-16zm0 0"/><path d="m432 95.679688h16v16h-16zm0 0"/><path d="m464 95.679688h16v16h-16zm0 0"/><path d="m333.738281 40.003906 136-40.003906 4.515625 15.351562-136 40zm0 0"/><path d="m334.171875 167.464844 3.667969-15.582032 135.996094 32-3.667969 15.582032zm0 0"/><path d="m368 63.679688h16v16h-16zm0 0"/><path d="m400 63.679688h16v16h-16zm0 0"/><path d="m432 63.679688h16v16h-16zm0 0"/><path d="m464 63.679688h16v16h-16zm0 0"/><path d="m368 127.679688h16v16h-16zm0 0"/><path d="m336 95.679688h16v16h-16zm0 0"/><path d="m336 63.679688h16v16h-16zm0 0"/><path d="m336 127.679688h16v16h-16zm0 0"/><path d="m400 127.679688h16v16h-16zm0 0"/><path d="m432 127.679688h16v16h-16zm0 0"/><path d="m464 127.679688h16v16h-16zm0 0"/></svg>